<?xml version="1.0" encoding="UTF-8"?>
<!DOCTYPE svg PUBLIC "-//W3C//DTD SVG 1.1//EN" "http://www.w3.org/Graphics/SVG/1.1/DTD/svg11.dtd">
<!-- Creator: CorelDRAW X8 -->
<svg xmlns="http://www.w3.org/2000/svg" xml:space="preserve" width="500px" height="500px" version="1.1" style="shape-rendering:geometricPrecision; text-rendering:geometricPrecision; image-rendering:optimizeQuality; fill-rule:evenodd; clip-rule:evenodd"
viewBox="0 0 500 500"
 xmlns:xlink="http://www.w3.org/1999/xlink"
 enable-background="new 0 0 24 24">
 <defs>
  <style type="text/css">
   <![CDATA[
    .fil0 {fill:#497A96}
   ]]>
  </style>
 </defs>
 <g id="Слой_x0020_1">
  <metadata id="CorelCorpID_0Corel-Layer"/>
  <g id="_1059325216">
   <path class="fil0" d="M457 103l-348 0c-25,0 -43,20 -43,43l0 203c0,25 18,44 43,44l210 0 109 58 0 -58 29 0c23,0 43,-19 43,-44l0 -203c0,-23 -20,-43 -43,-43l0 0zm-81 124c-10,0 -21,9 -21,21 0,13 11,22 21,22 13,0 22,-9 22,-22 0,-12 -9,-21 -22,-21zm-93 0c-12,0 -21,9 -21,21 0,13 9,22 21,22 11,0 22,-9 22,-22 0,-12 -11,-21 -22,-21zm-95 0c-11,0 -21,9 -21,21 0,13 10,22 21,22 13,0 22,-9 22,-22 0,-12 -9,-21 -22,-21z"/>
   <path class="fil0" d="M391 49l-348 0c-23,0 -43,20 -43,43l0 203c0,25 20,45 43,45l7 0 0 -194c0,-32 27,-57 59,-57l325 0c-2,-22 -20,-40 -43,-40l0 0z"/>
  </g>
 </g>
</svg>
