<?xml version="1.0" encoding="UTF-8"?>
<!DOCTYPE svg PUBLIC "-//W3C//DTD SVG 1.1//EN" "http://www.w3.org/Graphics/SVG/1.1/DTD/svg11.dtd">
<!-- Creator: CorelDRAW X8 -->
<svg xmlns="http://www.w3.org/2000/svg" xml:space="preserve" width="248px" height="248px" version="1.1" style="shape-rendering:geometricPrecision; text-rendering:geometricPrecision; image-rendering:optimizeQuality; fill-rule:evenodd; clip-rule:evenodd"
viewBox="0 0 248 248"
 xmlns:xlink="http://www.w3.org/1999/xlink">
 <defs>
  <style type="text/css">
   <![CDATA[
    .fil0 {fill:#BDC5D1}
   ]]>
  </style>
 </defs>
 <g id="Слой_x0020_1">
  <metadata id="CorelCorpID_0Corel-Layer"/>
  <g id="_1154585936">
   <circle class="fil0" cx="2" cy="2" r="2"/>
   <circle class="fil0" cx="29" cy="2" r="2"/>
   <circle class="fil0" cx="56" cy="2" r="2"/>
   <circle class="fil0" cx="2" cy="29" r="2"/>
   <circle class="fil0" cx="29" cy="29" r="2"/>
   <circle class="fil0" cx="56" cy="29" r="2"/>
   <circle class="fil0" cx="2" cy="56" r="2"/>
   <circle class="fil0" cx="29" cy="56" r="2"/>
   <circle class="fil0" cx="56" cy="56" r="2"/>
   <circle class="fil0" cx="2" cy="83" r="2"/>
   <circle class="fil0" cx="29" cy="83" r="2"/>
   <circle class="fil0" cx="56" cy="83" r="2"/>
   <circle class="fil0" cx="2" cy="110" r="2"/>
   <circle class="fil0" cx="29" cy="110" r="2"/>
   <circle class="fil0" cx="56" cy="110" r="2"/>
   <circle class="fil0" cx="2" cy="138" r="2"/>
   <circle class="fil0" cx="29" cy="138" r="2"/>
   <circle class="fil0" cx="56" cy="138" r="2"/>
   <circle class="fil0" cx="2" cy="165" r="2"/>
   <circle class="fil0" cx="29" cy="165" r="2"/>
   <circle class="fil0" cx="56" cy="165" r="2"/>
   <circle class="fil0" cx="2" cy="192" r="2"/>
   <circle class="fil0" cx="29" cy="192" r="2"/>
   <circle class="fil0" cx="56" cy="192" r="2"/>
   <circle class="fil0" cx="2" cy="219" r="2"/>
   <circle class="fil0" cx="29" cy="219" r="2"/>
   <circle class="fil0" cx="56" cy="219" r="2"/>
   <circle class="fil0" cx="2" cy="246" r="2"/>
   <circle class="fil0" cx="29" cy="246" r="2"/>
   <circle class="fil0" cx="56" cy="246" r="2"/>
   <circle class="fil0" cx="83" cy="2" r="2"/>
   <circle class="fil0" cx="110" cy="2" r="2"/>
   <circle class="fil0" cx="83" cy="29" r="2"/>
   <circle class="fil0" cx="110" cy="29" r="2"/>
   <circle class="fil0" cx="83" cy="56" r="2"/>
   <circle class="fil0" cx="110" cy="56" r="2"/>
   <circle class="fil0" cx="83" cy="83" r="2"/>
   <circle class="fil0" cx="110" cy="83" r="2"/>
   <circle class="fil0" cx="83" cy="110" r="2"/>
   <circle class="fil0" cx="110" cy="110" r="2"/>
   <circle class="fil0" cx="83" cy="138" r="2"/>
   <circle class="fil0" cx="110" cy="138" r="2"/>
   <circle class="fil0" cx="83" cy="165" r="2"/>
   <circle class="fil0" cx="110" cy="165" r="2"/>
   <circle class="fil0" cx="83" cy="192" r="2"/>
   <circle class="fil0" cx="110" cy="192" r="2"/>
   <circle class="fil0" cx="83" cy="219" r="2"/>
   <circle class="fil0" cx="110" cy="219" r="2"/>
   <circle class="fil0" cx="83" cy="246" r="2"/>
   <circle class="fil0" cx="110" cy="246" r="2"/>
   <circle class="fil0" cx="138" cy="2" r="2"/>
   <circle class="fil0" cx="165" cy="2" r="2"/>
   <circle class="fil0" cx="192" cy="2" r="2"/>
   <circle class="fil0" cx="138" cy="29" r="2"/>
   <circle class="fil0" cx="165" cy="29" r="2"/>
   <circle class="fil0" cx="192" cy="29" r="2"/>
   <circle class="fil0" cx="138" cy="56" r="2"/>
   <circle class="fil0" cx="165" cy="56" r="2"/>
   <circle class="fil0" cx="192" cy="56" r="2"/>
   <circle class="fil0" cx="138" cy="83" r="2"/>
   <circle class="fil0" cx="165" cy="83" r="2"/>
   <circle class="fil0" cx="192" cy="83" r="2"/>
   <circle class="fil0" cx="138" cy="110" r="2"/>
   <circle class="fil0" cx="165" cy="110" r="2"/>
   <circle class="fil0" cx="192" cy="110" r="2"/>
   <circle class="fil0" cx="138" cy="138" r="2"/>
   <circle class="fil0" cx="165" cy="138" r="2"/>
   <circle class="fil0" cx="192" cy="138" r="2"/>
   <circle class="fil0" cx="138" cy="165" r="2"/>
   <circle class="fil0" cx="165" cy="165" r="2"/>
   <circle class="fil0" cx="192" cy="165" r="2"/>
   <circle class="fil0" cx="138" cy="192" r="2"/>
   <circle class="fil0" cx="165" cy="192" r="2"/>
   <circle class="fil0" cx="192" cy="192" r="2"/>
   <circle class="fil0" cx="138" cy="219" r="2"/>
   <circle class="fil0" cx="165" cy="219" r="2"/>
   <circle class="fil0" cx="192" cy="219" r="2"/>
   <circle class="fil0" cx="138" cy="246" r="2"/>
   <circle class="fil0" cx="165" cy="246" r="2"/>
   <circle class="fil0" cx="192" cy="246" r="2"/>
   <circle class="fil0" cx="219" cy="2" r="2"/>
   <circle class="fil0" cx="246" cy="2" r="2"/>
   <circle class="fil0" cx="219" cy="29" r="2"/>
   <circle class="fil0" cx="246" cy="29" r="2"/>
   <circle class="fil0" cx="219" cy="56" r="2"/>
   <circle class="fil0" cx="246" cy="56" r="2"/>
   <circle class="fil0" cx="219" cy="83" r="2"/>
   <circle class="fil0" cx="246" cy="83" r="2"/>
   <circle class="fil0" cx="219" cy="110" r="2"/>
   <circle class="fil0" cx="246" cy="110" r="2"/>
   <circle class="fil0" cx="219" cy="138" r="2"/>
   <circle class="fil0" cx="246" cy="138" r="2"/>
   <circle class="fil0" cx="219" cy="165" r="2"/>
   <circle class="fil0" cx="246" cy="165" r="2"/>
   <circle class="fil0" cx="219" cy="192" r="2"/>
   <circle class="fil0" cx="246" cy="192" r="2"/>
   <circle class="fil0" cx="219" cy="219" r="2"/>
   <circle class="fil0" cx="246" cy="219" r="2"/>
   <circle class="fil0" cx="219" cy="246" r="2"/>
   <circle class="fil0" cx="246" cy="246" r="2"/>
  </g>
 </g>
</svg>
