<?xml version="1.0" encoding="UTF-8"?>
<!DOCTYPE svg PUBLIC "-//W3C//DTD SVG 1.1//EN" "http://www.w3.org/Graphics/SVG/1.1/DTD/svg11.dtd">
<!-- Creator: CorelDRAW X8 -->
<svg xmlns="http://www.w3.org/2000/svg" xml:space="preserve" width="500px" height="500px" version="1.1" style="shape-rendering:geometricPrecision; text-rendering:geometricPrecision; image-rendering:optimizeQuality; fill-rule:evenodd; clip-rule:evenodd"
viewBox="0 0 500 500"
 xmlns:xlink="http://www.w3.org/1999/xlink"
 data-name="Layer 2"
 enable-background="new 0 0 100 100">
 <defs>
  <style type="text/css">
   <![CDATA[
    .fil0 {fill:#497A96}
    .fil1 {fill:white;fill-rule:nonzero}
   ]]>
  </style>
 </defs>
 <g id="Слой_x0020_1">
  <metadata id="CorelCorpID_0Corel-Layer"/>
  <circle class="fil0" cx="250" cy="250" r="229"/>
  <path class="fil1" d="M265 338c-40,0 -72,-23 -84,-56l104 0 0 -19 -108 0c-1,-4 -1,-8 -1,-13 0,-5 0,-9 1,-13l108 0 0 -19 -104 0c12,-33 44,-56 84,-56 25,0 47,9 65,27l21 -20c-21,-24 -52,-36 -88,-36 -57,0 -103,34 -116,85l-38 0 0 19 34 0c0,4 0,8 0,13 0,5 0,9 0,13l-34 0 0 19 38 0c13,51 59,85 116,85 36,0 67,-13 88,-36l-21 -21c-18,19 -40,28 -65,28z"/>
 </g>
</svg>
