<?xml version="1.0" encoding="UTF-8"?>
<!DOCTYPE svg PUBLIC "-//W3C//DTD SVG 1.1//EN" "http://www.w3.org/Graphics/SVG/1.1/DTD/svg11.dtd">
<!-- Creator: CorelDRAW X8 -->
<svg xmlns="http://www.w3.org/2000/svg" xml:space="preserve" width="500px" height="500px" version="1.1" style="shape-rendering:geometricPrecision; text-rendering:geometricPrecision; image-rendering:optimizeQuality; fill-rule:evenodd; clip-rule:evenodd"
viewBox="0 0 500 500"
 xmlns:xlink="http://www.w3.org/1999/xlink"
 enable-background="new 0 0 67 67">
 <defs>
  <style type="text/css">
   <![CDATA[
    .fil0 {fill:black}
   ]]>
  </style>
 </defs>
 <g id="Слой_x0020_1">
  <metadata id="CorelCorpID_0Corel-Layer"/>
  <g id="_1074326752">
   <path class="fil0" d="M52 38l0 424c0,2 1,4 3,6l38 30c3,3 7,3 9,0l34 -26 33 26c3,3 7,3 9,0l33 -26 34 26c3,3 7,3 10,0l33 -26 33 26c3,3 7,3 10,0l33 -26 34 26c1,1 3,2 4,2 2,0 3,-1 5,-2l38 -30c1,-2 3,-4 3,-6l0 -424c0,-2 -1,-4 -3,-6l-38 -30c-3,-3 -7,-3 -10,0l-33 26 -34 -26c-3,-3 -6,-3 -9,0l-33 26 -33 -26c-3,-3 -7,-3 -10,0l-33 26 -33 -26c-3,-3 -7,-3 -9,0l-34 26 -33 -26c-3,-3 -7,-3 -9,0l-38 30c-3,2 -4,4 -4,6zm15 4l31 -24 33 26c3,2 7,2 9,0l33 -26 34 26c3,2 7,2 10,0l33 -26 33 26c3,2 7,2 9,0l34 -26 35 26c3,2 7,2 9,0l33 -26 30 24 0 417 -30 24 -33 -26c-3,-3 -7,-3 -10,0l-33 26 -34 -26c-3,-3 -7,-3 -10,0l-33 26 -33 -26c-3,-3 -7,-3 -10,0l-34 26 -32 -26c-3,-3 -7,-3 -9,0l-34 26 -30 -24 0 -417 -1 0z"/>
   <path class="fil0" d="M114 101l266 0c5,0 8,-3 8,-8 0,-4 -3,-7 -8,-7l-266 0c-4,0 -7,3 -7,7 0,5 3,8 7,8z"/>
   <path class="fil0" d="M114 162l266 0c5,0 8,-3 8,-8 0,-4 -3,-7 -8,-7l-266 0c-4,0 -7,3 -7,7 0,5 3,8 7,8z"/>
   <path class="fil0" d="M114 222l266 0c5,0 8,-3 8,-7 0,-5 -3,-8 -8,-8l-266 0c-4,0 -7,3 -7,8 0,4 3,7 7,7z"/>
   <path class="fil0" d="M114 283l266 0c5,0 8,-3 8,-8 0,-4 -3,-7 -8,-7l-266 0c-4,0 -7,3 -7,7 0,5 3,8 7,8z"/>
   <path class="fil0" d="M380 360l-133 0c-5,0 -8,3 -8,7 0,5 3,8 8,8l133 0c4,0 7,-3 7,-8 0,-4 -3,-7 -7,-7z"/>
  </g>
 </g>
</svg>
