<?xml version="1.0" encoding="UTF-8"?>
<!DOCTYPE svg PUBLIC "-//W3C//DTD SVG 1.1//EN" "http://www.w3.org/Graphics/SVG/1.1/DTD/svg11.dtd">
<!-- Creator: CorelDRAW X8 -->
<svg xmlns="http://www.w3.org/2000/svg" xml:space="preserve" width="500px" height="500px" version="1.1" style="shape-rendering:geometricPrecision; text-rendering:geometricPrecision; image-rendering:optimizeQuality; fill-rule:evenodd; clip-rule:evenodd"
viewBox="0 0 500 500"
 xmlns:xlink="http://www.w3.org/1999/xlink"
 enable-background="new 0 0 67 67">
 <defs>
  <style type="text/css">
   <![CDATA[
    .fil0 {fill:black}
   ]]>
  </style>
 </defs>
 <g id="Слой_x0020_1">
  <metadata id="CorelCorpID_0Corel-Layer"/>
  <path class="fil0" d="M462 466l0 -364c0,-20 -16,-35 -35,-35l-32 0 0 -32c0,-20 -15,-35 -34,-35l-288 0c-19,0 -35,16 -35,35l0 364c0,20 16,35 35,35l32 0 0 31c0,20 15,35 34,35l287 0c20,1 36,-15 36,-34zm-389 -47c-11,0 -19,-9 -19,-19l0 -365c0,-11 9,-20 19,-20l287 0c11,0 20,9 20,20l0 31 -241 0c-19,0 -34,16 -34,35l0 318 -32 0 0 0zm373 47c0,12 -9,20 -19,20l-288 0c-11,0 -19,-9 -19,-20 0,-74 0,-291 0,-363 0,-12 9,-20 19,-20 73,0 214,0 287,0 11,0 20,9 20,20l0 363 0 0z"/>
  <path class="fil0" d="M401 140l-243 0c-4,0 -7,3 -7,7 0,5 3,8 7,8l243 0c4,0 7,-3 7,-8 0,-4 -3,-7 -7,-7z"/>
  <path class="fil0" d="M401 197l-243 0c-4,0 -7,3 -7,8 0,4 3,7 7,7l243 0c4,0 7,-3 7,-7 0,-5 -3,-8 -7,-8z"/>
  <path class="fil0" d="M401 255l-243 0c-4,0 -7,3 -7,8 0,4 3,7 7,7l243 0c4,0 7,-3 7,-7 0,-5 -3,-8 -7,-8z"/>
  <g id="_991264352">
   <path class="fil0" d="M274 453c1,1 1,1 1,1 0,0 1,1 2,1 1,0 2,1 3,1 1,0 2,-1 3,-1 0,0 1,-1 1,-1 0,0 1,0 1,-1l60 -59c1,-2 2,-4 2,-6 0,-2 -1,-4 -2,-5 -3,-3 -8,-3 -11,0l-47 46 0 -107c0,-4 -3,-8 -7,-8 -5,0 -8,4 -8,8l0 107 -46 -46c-3,-3 -8,-3 -11,0 -3,3 -3,8 0,11l59 59z"/>
  </g>
 </g>
</svg>
