<?xml version="1.0" encoding="UTF-8"?>
<!DOCTYPE svg PUBLIC "-//W3C//DTD SVG 1.1//EN" "http://www.w3.org/Graphics/SVG/1.1/DTD/svg11.dtd">
<!-- Creator: CorelDRAW X8 -->
<svg xmlns="http://www.w3.org/2000/svg" xml:space="preserve" width="404px" height="98px" version="1.1" style="shape-rendering:geometricPrecision; text-rendering:geometricPrecision; image-rendering:optimizeQuality; fill-rule:evenodd; clip-rule:evenodd"
viewBox="0 0 404 98"
 xmlns:xlink="http://www.w3.org/1999/xlink">
 <defs>
  <style type="text/css">
   <![CDATA[
    .str0 {stroke:#497A96;stroke-width:2.99991}
    .fil3 {fill:none}
    .fil0 {fill:#30354F}
    .fil2 {fill:#3B8F8F}
    .fil1 {fill:#497A96}
   ]]>
  </style>
 </defs>
 <g id="Слой_x0020_1">
  <metadata id="CorelCorpID_0Corel-Layer"/>
  <g id="_1103522448">
   <g>
    <g>
     <path class="fil0" d="M137 82l0 -1c4,-1 4,-1 4,-7l0 -24c-4,11 -12,27 -14,32l-2 0c-2,-5 -8,-21 -13,-32 -1,21 -1,26 -1,27 0,3 2,3 6,4l0 1 -14 0 0 -1c3,-1 5,-1 5,-4 1,-3 1,-5 2,-26 0,-3 0,-4 -5,-5l0 -2 10 0 13 30 14 -30 10 0 0 2c-5,1 -6,1 -6,5l1 23c0,6 0,6 5,7l0 1 -15 0z"/>
     <path class="fil0" d="M182 58c-3,1 -4,1 -5,5 -2,3 -3,7 -8,17 -3,9 -4,13 -5,16 -1,1 -1,2 -2,2 -2,0 -4,-2 -4,-3 0,-1 1,-2 2,-2 2,-2 3,-3 4,-5 1,-2 2,-4 2,-5 0,-1 0,-1 0,-2 -2,-7 -6,-14 -7,-18 -2,-4 -2,-4 -5,-5l0 -1 11 0 0 1c-2,1 -3,1 -2,4l6 14c2,-4 4,-11 5,-14 1,-3 0,-3 -3,-4l0 -1 11 0 0 1z"/>
     <path class="fil0" d="M203 44c10,0 19,7 19,19 0,12 -9,20 -19,20 -12,0 -20,-8 -20,-19 0,-11 8,-20 20,-20zm-1 2c-7,0 -13,5 -13,16 0,11 6,19 14,19 8,0 13,-5 13,-16 0,-13 -7,-19 -14,-19z"/>
     <path class="fil0" d="M242 82l0 -1c4,-1 4,-1 4,-4l0 -15c0,-2 0,-3 -3,-3l-8 0 0 18c0,3 0,3 4,4l0 1 -13 0 0 -1c4,-1 4,-1 4,-4l0 -18 -4 0 0 -1 1 -1 3 0c0,-6 2,-10 6,-13 2,-2 5,-3 7,-4 4,0 6,2 7,3 0,1 1,1 1,2 -1,0 -1,2 -2,2 -1,1 -2,1 -2,0 -2,-2 -4,-4 -6,-4 -2,0 -3,1 -4,2 -1,2 -2,5 -2,10l0 2 5 0c4,0 8,0 11,-1l0 21c0,3 0,3 4,4l0 1 -13 0z"/>
     <path class="fil0" d="M299 46c-4,1 -5,1 -5,6l0 23c0,5 1,5 5,6l0 1 -15 0 0 -1c5,-1 5,-1 5,-6l0 -12 -20 0 0 12c0,5 1,5 5,6l0 1 -15 0 0 -1c4,-1 5,-1 5,-6l0 -23c0,-5 -1,-5 -5,-6l0 -2 15 0 0 2c-4,0 -5,1 -5,6l0 9 20 0 0 -9c0,-5 -1,-6 -5,-6l0 -2 15 0 0 2z"/>
     <path class="fil0" d="M317 56c8,0 13,6 13,13 0,10 -7,14 -13,14 -8,0 -13,-6 -13,-13 0,-9 8,-14 13,-14zm-1 2c-3,0 -6,4 -6,10 0,8 3,13 8,13 3,0 6,-3 6,-11 0,-6 -2,-12 -8,-12z"/>
     <path class="fil0" d="M366 82l0 -1c4,-1 4,-1 4,-5l0 -10c0,-4 -1,-6 -5,-6 -2,0 -4,1 -6,3 0,0 0,1 0,2l0 11c0,4 0,4 3,5l0 1 -12 0 0 -1c4,-1 4,-1 4,-5l0 -10c0,-4 -1,-6 -5,-6 -2,0 -4,1 -6,3l0 13c0,4 0,4 3,5l0 1 -12 0 0 -1c4,-1 4,-1 4,-5l0 -12c0,-3 0,-4 -3,-4l0 -2c2,0 5,-1 8,-2 0,1 0,3 0,5 1,-1 2,-2 4,-3 2,-1 3,-2 5,-2 2,0 5,2 6,5 2,-1 3,-2 5,-3 1,-1 3,-2 4,-2 5,0 8,3 8,9l0 11c0,4 0,4 3,5l0 1 -12 0z"/>
     <path class="fil0" d="M403 77c-3,5 -8,6 -9,6 -8,0 -12,-6 -12,-12 0,-4 2,-8 4,-11 2,-2 6,-4 9,-4 5,0 9,4 9,9 0,1 -1,2 -2,2 -1,0 -8,1 -15,1 0,8 4,11 9,11 2,0 4,-1 6,-3l1 1zm-10 -19c-2,0 -5,3 -6,8 3,0 7,0 10,-1 1,0 2,0 2,-1 0,-3 -2,-6 -6,-6z"/>
    </g>
   </g>
   <path class="fil1" d="M137 82l0 -1c4,-1 4,-1 4,-7l0 -24c-4,11 -12,27 -14,32l-2 0c-2,-5 -8,-21 -13,-32 -1,21 -1,26 -1,27 0,3 2,3 6,4l0 1 -14 0 0 -1c3,-1 5,-1 5,-4 1,-3 1,-5 2,-26 0,-3 0,-4 -5,-5l0 -2 10 0 13 30 14 -30 10 0 0 2c-5,1 -6,1 -6,5l1 23c0,6 0,6 5,7l0 1 -15 0z"/>
   <path class="fil1" d="M182 58c-3,1 -4,1 -5,5 -2,3 -3,7 -8,17 -3,9 -4,13 -5,16 -1,1 -1,2 -2,2 -2,0 -4,-2 -4,-3 0,-1 1,-2 2,-2 2,-2 3,-3 4,-5 1,-2 2,-4 2,-5 0,-1 0,-1 0,-2 -2,-7 -6,-14 -7,-18 -2,-4 -2,-4 -5,-5l0 -1 11 0 0 1c-2,1 -3,1 -2,4l6 14c2,-4 4,-11 5,-14 1,-3 0,-3 -3,-4l0 -1 11 0 0 1z"/>
   <path class="fil1" d="M203 44c10,0 19,7 19,19 0,12 -9,20 -19,20 -12,0 -20,-8 -20,-19 0,-11 8,-20 20,-20zm-1 2c-7,0 -13,5 -13,16 0,11 6,19 14,19 8,0 13,-5 13,-16 0,-13 -7,-19 -14,-19z"/>
   <path class="fil1" d="M242 82l0 -1c4,-1 4,-1 4,-4l0 -15c0,-2 0,-3 -3,-3l-8 0 0 18c0,3 0,3 4,4l0 1 -13 0 0 -1c4,-1 4,-1 4,-4l0 -18 -4 0 0 -1 1 -1 3 0c0,-6 2,-10 6,-13 2,-2 5,-3 7,-4 4,0 6,2 7,3 0,1 1,1 1,2 -1,0 -1,2 -2,2 -1,1 -2,1 -2,0 -2,-2 -4,-4 -6,-4 -2,0 -3,1 -4,2 -1,2 -2,5 -2,10l0 2 5 0c4,0 8,0 11,-1l0 21c0,3 0,3 4,4l0 1 -13 0z"/>
   <path class="fil2" d="M299 46c-4,1 -5,1 -5,6l0 23c0,5 1,5 5,6l0 1 -15 0 0 -1c5,-1 5,-1 5,-6l0 -12 -20 0 0 12c0,5 1,5 5,6l0 1 -15 0 0 -1c4,-1 5,-1 5,-6l0 -23c0,-5 -1,-5 -5,-6l0 -2 15 0 0 2c-4,0 -5,1 -5,6l0 9 20 0 0 -9c0,-5 -1,-6 -5,-6l0 -2 15 0 0 2z"/>
   <path class="fil2" d="M317 56c8,0 13,6 13,13 0,10 -7,14 -13,14 -8,0 -13,-6 -13,-13 0,-9 8,-14 13,-14zm-1 2c-3,0 -6,4 -6,10 0,8 3,13 8,13 3,0 6,-3 6,-11 0,-6 -2,-12 -8,-12z"/>
   <path class="fil2" d="M366 82l0 -1c4,-1 4,-1 4,-5l0 -10c0,-4 -1,-6 -5,-6 -2,0 -4,1 -6,3 0,0 0,1 0,2l0 11c0,4 0,4 3,5l0 1 -12 0 0 -1c4,-1 4,-1 4,-5l0 -10c0,-4 -1,-6 -5,-6 -2,0 -4,1 -6,3l0 13c0,4 0,4 3,5l0 1 -12 0 0 -1c4,-1 4,-1 4,-5l0 -12c0,-3 0,-4 -3,-4l0 -2c2,0 5,-1 8,-2 0,1 0,3 0,5 1,-1 2,-2 4,-3 2,-1 3,-2 5,-2 2,0 5,2 6,5 2,-1 3,-2 5,-3 1,-1 3,-2 4,-2 5,0 8,3 8,9l0 11c0,4 0,4 3,5l0 1 -12 0z"/>
   <path class="fil2" d="M403 77c-3,5 -8,6 -9,6 -8,0 -12,-6 -12,-12 0,-4 2,-8 4,-11 2,-2 6,-4 9,-4 5,0 9,4 9,9 0,1 -1,2 -2,2 -1,0 -8,1 -15,1 0,8 4,11 9,11 2,0 4,-1 6,-3l1 1zm-10 -19c-2,0 -5,3 -6,8 3,0 7,0 10,-1 1,0 2,0 2,-1 0,-3 -2,-6 -6,-6z"/>
   <line class="fil3 str0" x1="104" y1="88" x2="153" y2= "88" />
   <line class="fil3 str0" x1="169" y1="88" x2="400" y2= "88" />
   <g>
    <g>
     <path class="fil1" d="M101 42l-19 -16c0,0 0,0 0,0l0 -21c0,-1 -1,-2 -2,-2l-11 0c-1,0 -2,1 -2,2l0 9 -15 -13c-1,-1 -2,-1 -3,0l-48 41c-1,1 -1,2 0,3 1,1 2,1 3,0 0,0 0,0 0,0l47 -40 17 15 10 8 20 17c1,1 2,1 3,0 1,-1 0,-2 0,-3zm-23 -19l-6 -6 0 -10 6 0 0 16z"/>
    </g>
   </g>
   <g>
    <g>
     <path class="fil1" d="M91 46l-6 -5 -33 -28c-1,0 -2,0 -3,0l-32 28 -6 5c-1,1 -1,3 0,4 0,0 2,1 3,0l0 0 2 -3 0 41c0,1 1,2 3,2l64 0c1,0 2,-1 2,-2l0 -41 3 3c1,0 1,0 2,0 0,0 1,0 1,0 1,-1 1,-3 0,-4zm-10 40l-17 0c0,0 0,0 0,0 -1,0 -1,0 -1,0 0,0 -1,0 -1,0 0,0 0,0 0,0 0,0 0,0 0,0 0,0 -1,0 -1,0 -1,0 -1,0 -1,0 0,0 0,0 0,0 0,0 0,0 0,0l-39 0 0 -42 30 -26 30 26 0 42z"/>
    </g>
   </g>
   <line class="fil3" x1="64" y1="84" x2="64" y2= "84" />
   <g id="surface1">
    <path class="fil1" d="M66 56l0 -9c0,0 -1,0 -1,-1l-10 -10c0,-1 0,-1 -1,-1l-16 0c-3,0 -5,3 -5,6l0 31c0,3 2,5 5,5l13 0c2,4 7,7 12,7 7,0 14,-6 14,-14 0,-7 -5,-12 -11,-14zm-11 -17l7 7 -4 0c-2,0 -3,-1 -3,-2l0 -5 0 0zm-17 36c-2,0 -3,-1 -3,-3l0 -31c0,-2 1,-4 3,-4l15 0 0 7c0,2 2,4 5,4l6 0 0 8c-1,0 -1,0 -1,0 -4,0 -7,1 -9,4l-13 0c-1,0 -1,0 -1,1 0,0 0,1 1,1l11 0c-1,1 -2,2 -2,3l-9 0c-1,0 -1,0 -1,1 0,0 0,1 1,1l8 0c0,1 0,2 0,3 0,2 0,4 1,5l-12 0 0 0 0 0zm25 7c-7,0 -12,-6 -12,-12 0,-7 5,-12 12,-12 6,0 12,5 12,12 0,6 -6,12 -12,12z"/>
    <path class="fil1" d="M41 56l10 0c0,0 1,0 1,-1 0,0 -1,-1 -1,-1l-10 0c-1,0 -1,1 -1,1 0,1 0,1 1,1z"/>
    <path class="fil1" d="M67 64c1,1 1,0 2,0 0,-1 -1,-1 -1,-1 -3,-2 -6,-1 -8,1 -1,1 -2,2 -2,4l-2 0c0,0 -1,0 -1,1 0,0 1,1 1,1l1 0c0,0 0,0 0,0 0,0 0,0 0,1l-1 0c0,0 -1,0 -1,1 0,0 1,1 1,1l2 0c0,1 1,2 2,3 1,1 3,2 5,2 1,0 2,0 3,-1 1,0 1,0 1,-1 -1,0 -1,-1 -2,0 -2,0 -4,0 -6,-2 -1,0 -1,-1 -1,-1l6 0c0,0 1,-1 1,-1 0,-1 -1,-1 -1,-1l-7 0c0,-1 0,-1 0,-1l7 0c1,0 1,-1 1,-1 0,-1 0,-1 -1,-1l-6 0c0,-1 0,-2 1,-2 2,-2 4,-2 6,-2z"/>
   </g>
  </g>
 </g>
</svg>
