<?xml version="1.0" encoding="UTF-8"?>
<!DOCTYPE svg PUBLIC "-//W3C//DTD SVG 1.1//EN" "http://www.w3.org/Graphics/SVG/1.1/DTD/svg11.dtd">
<!-- Creator: CorelDRAW X8 -->
<svg xmlns="http://www.w3.org/2000/svg" xml:space="preserve" width="500px" height="500px" version="1.1" style="shape-rendering:geometricPrecision; text-rendering:geometricPrecision; image-rendering:optimizeQuality; fill-rule:evenodd; clip-rule:evenodd"
viewBox="0 0 500 500"
 xmlns:xlink="http://www.w3.org/1999/xlink">
 <defs>
  <style type="text/css">
   <![CDATA[
    .fil0 {fill:white}
   ]]>
  </style>
 </defs>
 <g id="Слой_x0020_1">
  <metadata id="CorelCorpID_0Corel-Layer"/>
  <g id="_824455680">
   <path class="fil0" d="M475 428c9,0 17,-8 17,-17 0,-10 -8,-18 -17,-18l-235 0c-8,-34 -40,-59 -76,-59 -37,0 -68,25 -76,59l-63 0c-9,0 -17,8 -17,18 0,9 8,17 17,17l63 0c8,36 39,61 76,61 36,0 68,-25 76,-61l235 0zm-312 26c-23,0 -42,-20 -42,-43 0,-24 19,-44 43,-44 24,0 44,20 44,44 0,0 0,0 0,0 0,23 -20,43 -44,43 0,0 0,0 -1,0l0 0 0 0z"/>
   <path class="fil0" d="M25 267c-9,0 -17,-7 -17,-17 0,-10 8,-17 17,-17l235 0c8,-36 40,-61 76,-61 37,0 68,25 76,61l63 0c9,0 17,7 17,17 0,10 -8,17 -17,17l-63 0c-8,36 -39,61 -76,61 -36,0 -68,-25 -76,-61l-235 0zm312 26c23,0 42,-19 42,-43 0,-24 -19,-43 -43,-43 -24,0 -44,19 -44,43 0,0 0,0 0,0 0,24 20,43 44,43 0,0 0,0 1,0l0 0 0 0z"/>
   <path class="fil0" d="M475 107c9,0 17,-8 17,-18 0,-9 -8,-17 -17,-17l-235 0c-8,-36 -40,-61 -76,-61 -37,0 -68,25 -76,61l-63 0c-9,0 -17,8 -17,17 0,10 8,18 17,18l63 0c8,34 39,59 76,59 36,0 68,-25 76,-59l235 0zm-312 26c-23,-1 -42,-20 -42,-44 0,-23 19,-43 43,-43 24,0 44,20 44,43 0,0 0,0 0,0 0,24 -20,44 -44,44 0,0 0,0 -1,0l0 0 0 0z"/>
  </g>
 </g>
</svg>
